<svg xmlns="http://www.w3.org/2000/svg" viewBox="0 0 199 127.39"><defs><style>.cls-1{fill:#b49247;}</style></defs><title>Asset 9</title><g id="Layer_2" data-name="Layer 2"><g id="Layer_1-2" data-name="Layer 1"><rect class="cls-1" x="67.81" y="62.16" width="65.47" height="1.95"/><path class="cls-1" d="M99.35,10.49"/><polyline class="cls-1" points="65.04 10.58 64.01 8.69 100.73 0 100.73 2.15 73.9 8.34 127.56 8.33 100.72 2.15 100.73 0 137.45 8.68 136.42 10.57 100.56 10.57"/><path class="cls-1" d="M132,16.6a14.21,14.21,0,0,1,2.35-5H67.13a14.23,14.23,0,0,1,2.35,5h31.3"/><path class="cls-1" d="M71.23,22.75v38h5V21.67A12.57,12.57,0,0,0,71.23,22.75Z"/><path class="cls-1" d="M69.5,18.84v3.28S71.59,20,78.15,20V18.84Z"/><path class="cls-1" d="M125.07,22.75v38h5V21.67A12.57,12.57,0,0,0,125.07,22.75Z"/><path class="cls-1" d="M123.34,18.84v3.28S125.43,20,132,20V18.84Z"/><path class="cls-1" d="M107.17,22.75v38h5V21.67A12.57,12.57,0,0,0,107.17,22.75Z"/><path class="cls-1" d="M105.43,18.84v3.28S107.52,20,114.09,20V18.84Z"/><path class="cls-1" d="M89.18,22.75v38h5V21.67A12.57,12.57,0,0,0,89.18,22.75Z"/><path class="cls-1" d="M87.44,18.84v3.28S89.53,20,96.1,20V18.84Z"/><rect class="cls-1" x="67.66" y="17.66" width="66.15" height="1.58"/><path class="cls-1" d="M22.81,95.5a43.23,43.23,0,0,1-2.17,5.87,35.25,35.25,0,0,1-7,1C4.15,102.35,0,95.8,0,89.74c0-8,6.17-13.29,14.66-13.29a30.08,30.08,0,0,1,6.74,1c.3,2.13.53,3.69.76,5.75l-1.1.27c-1-4-3.31-5.67-7.43-5.67-6.36,0-9.75,5.37-9.75,11.16,0,7.12,4.19,12,10,12,3.88,0,5.94-2.09,7.85-5.87Z"/><path class="cls-1" d="M41,76.45A12.27,12.27,0,0,1,53.24,89.1c0,8.23-5.75,13.25-12.72,13.25A12.28,12.28,0,0,1,28.15,89.67c0-6.86,4.8-13.22,12.8-13.22Zm-.84,1.37C35.91,77.82,32,81.44,32,88.6S36,101,41.32,101c4.27,0,8-3.54,8-10.85,0-8-4.19-12.3-9.18-12.3Z"/><path class="cls-1" d="M84.51,78.09c-2.13.11-3,.61-3.2,2.25a54.21,54.21,0,0,0-.23,6.44v15.35H79.9l-16.22-20H63.6v9.56a64.11,64.11,0,0,0,.23,6.44c.19,1.94,1.07,2.4,3.66,2.55v1.07h-9v-1.07c2.17-.15,3.16-.61,3.35-2.48.11-1.18.23-3,.23-6.51V83.35c0-2.78-.08-2.93-.76-3.85s-1.6-1.26-3.39-1.41V77h5.6L79.41,96.11h.11V86.77a48.06,48.06,0,0,0-.27-6.32c-.19-1.71-1.07-2.21-3.73-2.36V77h9Z"/><path class="cls-1" d="M112.2,95.5a43.23,43.23,0,0,1-2.17,5.87,35.25,35.25,0,0,1-7,1c-9.48,0-13.64-6.55-13.64-12.61,0-8,6.17-13.29,14.66-13.29a30.08,30.08,0,0,1,6.74,1c.3,2.13.53,3.69.76,5.75l-1.1.27c-1-4-3.31-5.67-7.43-5.67-6.36,0-9.75,5.37-9.75,11.16,0,7.12,4.19,12,10,12,3.88,0,5.94-2.09,7.85-5.87Z"/><path class="cls-1" d="M130.37,76.45A12.27,12.27,0,0,1,142.63,89.1c0,8.23-5.75,13.25-12.72,13.25a12.28,12.28,0,0,1-12.38-12.68c0-6.86,4.8-13.22,12.8-13.22Zm-.84,1.37c-4.23,0-8.11,3.62-8.11,10.78S125.34,101,130.71,101c4.27,0,8-3.54,8-10.85,0-8-4.19-12.3-9.18-12.3Z"/><path class="cls-1" d="M170.4,102.09c-.46,0-.91,0-1.33,0a6.9,6.9,0,0,1-6.17-3.47c-1.33-1.87-2.7-4.23-3.85-6.09-.65-1.07-1.29-1.52-3.24-1.52h-1.22V97c0,3.2.34,3.47,3.35,3.69v1.07H148v-1.07c3.12-.23,3.43-.46,3.43-3.69V81.75c0-3.28-.3-3.39-3.28-3.66V77h9.45c2.78,0,4.65.34,6.06,1.29a5.64,5.64,0,0,1,2.55,5c0,3.28-2.06,5.29-4.84,6.55.65,1.22,2.25,3.77,3.39,5.48a29.53,29.53,0,0,0,3.08,4,5.26,5.26,0,0,0,2.74,1.79Zm-14-12.34a6,6,0,0,0,4.11-1.1,5.42,5.42,0,0,0,2.09-4.72c0-4.11-2.7-5.64-5.56-5.64a3.74,3.74,0,0,0-2.06.38c-.3.19-.42.65-.42,1.68v9.41Z"/><path class="cls-1" d="M185,77c4.84,0,8.38,1,10.74,3.24A11.09,11.09,0,0,1,199,88.45a12.19,12.19,0,0,1-4.68,10.17c-2.86,2.21-6.67,3.16-11.31,3.16h-9v-1c3.28-.23,3.58-.46,3.58-3.69V81.75c0-3.28-.3-3.43-3.24-3.66V77Zm-4.19,19.77c0,2.89,1.26,3.62,4,3.62,7.08,0,10.4-5.33,10.4-11.43,0-3.92-1.45-7.35-4.49-9.14a12.18,12.18,0,0,0-6.48-1.56,5.65,5.65,0,0,0-3,.5c-.34.23-.5.65-.5,2.17Z"/><path class="cls-1" d="M54.65,126.23a8.5,8.5,0,0,1-4.72,1.16c-4.68,0-8.07-3.23-8.07-7.57s3.39-7.57,8.07-7.57a8.51,8.51,0,0,1,4.72,1.14v2.24A7.1,7.1,0,0,0,49.91,114a5.8,5.8,0,0,0,0,11.59A7.12,7.12,0,0,0,54.65,124Z"/><path class="cls-1" d="M68.44,127.37a7.58,7.58,0,1,1,0-15.15c4.86,0,7.95,3.46,7.95,7.57S73.43,127.37,68.44,127.37Zm0-13.39A5.82,5.82,0,1,0,74,119.79,5.52,5.52,0,0,0,68.48,114Z"/><path class="cls-1" d="M91.71,127H83.33V112.55h2.3V125.3h6.08Z"/><path class="cls-1" d="M106.58,127H98.2V112.55h2.3V125.3h6.08Z"/><path class="cls-1" d="M121.79,127h-8.73V112.55h8.55v1.7h-6.25v4.59h6v1.66h-6v4.8h6.44Z"/><path class="cls-1" d="M141.23,126.23a10.9,10.9,0,0,1-5.19,1.16c-4.68,0-8.07-3.23-8.07-7.57s3.39-7.57,8.07-7.57a8.51,8.51,0,0,1,4.72,1.14v2.24A7.1,7.1,0,0,0,136,114a5.8,5.8,0,0,0,0,11.59,9.92,9.92,0,0,0,3-.39v-3.6h-3V120h5.26Z"/><path class="cls-1" d="M157.18,127h-8.73V112.55H157v1.7h-6.25v4.59h6v1.66h-6v4.8h6.43Z"/></g></g></svg>